<?xml version="1.0" encoding="UTF-8"?>
<svg xmlns="http://www.w3.org/2000/svg" xmlns:xlink="http://www.w3.org/1999/xlink" width="15px" height="15px" viewBox="0 0 15 15" version="1.1">
<g id="surface1">
<path style=" stroke:none;fill-rule:nonzero;fill:rgb(0%,0%,0%);fill-opacity:1;" d="M 11.875 2.5 L 10.625 2.5 L 10.625 1.875 C 10.625 1.53125 10.34375 1.25 10 1.25 C 9.65625 1.25 9.375 1.53125 9.375 1.875 L 9.375 2.5 L 5.625 2.5 L 5.625 1.875 C 5.625 1.53125 5.34375 1.25 5 1.25 C 4.65625 1.25 4.375 1.53125 4.375 1.875 L 4.375 2.5 L 3.125 2.5 C 2.089844 2.5 1.25 3.339844 1.25 4.375 L 1.25 11.875 C 1.25 12.910156 2.089844 13.75 3.125 13.75 L 11.875 13.75 C 12.910156 13.75 13.75 12.910156 13.75 11.875 L 13.75 4.375 C 13.75 3.339844 12.910156 2.5 11.875 2.5 Z M 12.5 11.875 C 12.5 12.21875 12.21875 12.5 11.875 12.5 L 3.125 12.5 C 2.78125 12.5 2.5 12.21875 2.5 11.875 L 2.5 7.5 L 12.5 7.5 Z M 12.5 6.25 L 2.5 6.25 L 2.5 4.375 C 2.5 4.03125 2.78125 3.75 3.125 3.75 L 4.375 3.75 L 4.375 4.375 C 4.375 4.71875 4.65625 5 5 5 C 5.34375 5 5.625 4.71875 5.625 4.375 L 5.625 3.75 L 9.375 3.75 L 9.375 4.375 C 9.375 4.71875 9.65625 5 10 5 C 10.34375 5 10.625 4.71875 10.625 4.375 L 10.625 3.75 L 11.875 3.75 C 12.21875 3.75 12.5 4.03125 12.5 4.375 Z M 12.5 6.25 "/>
</g>
</svg>
