<?xml version="1.0" encoding="UTF-8"?>
<svg xmlns="http://www.w3.org/2000/svg" xmlns:xlink="http://www.w3.org/1999/xlink" width="15px" height="15px" viewBox="0 0 15 15" version="1.1">
<g id="surface1">
<path style=" stroke:none;fill-rule:nonzero;fill:rgb(0%,0%,0%);fill-opacity:1;" d="M 6.5625 11.71875 L 13.125 11.71875 L 13.125 12.65625 L 6.5625 12.65625 Z M 6.5625 11.71875 "/>
<path style=" stroke:none;fill-rule:nonzero;fill:rgb(0%,0%,0%);fill-opacity:1;" d="M 3.359375 12.1875 L 2.152344 13.398438 L 2.8125 14.0625 L 4.6875 12.1875 L 2.8125 10.3125 L 2.148438 10.972656 Z M 3.359375 12.1875 "/>
<path style=" stroke:none;fill-rule:nonzero;fill:rgb(0%,0%,0%);fill-opacity:1;" d="M 6.5625 7.03125 L 13.125 7.03125 L 13.125 7.96875 L 6.5625 7.96875 Z M 6.5625 7.03125 "/>
<path style=" stroke:none;fill-rule:nonzero;fill:rgb(0%,0%,0%);fill-opacity:1;" d="M 3.359375 7.5 L 2.152344 8.710938 L 2.8125 9.375 L 4.6875 7.5 L 2.8125 5.625 L 2.148438 6.285156 Z M 3.359375 7.5 "/>
<path style=" stroke:none;fill-rule:nonzero;fill:rgb(0%,0%,0%);fill-opacity:1;" d="M 6.5625 2.34375 L 13.125 2.34375 L 13.125 3.28125 L 6.5625 3.28125 Z M 6.5625 2.34375 "/>
<path style=" stroke:none;fill-rule:nonzero;fill:rgb(0%,0%,0%);fill-opacity:1;" d="M 3.359375 2.8125 L 2.152344 4.023438 L 2.8125 4.6875 L 4.6875 2.8125 L 2.8125 0.9375 L 2.148438 1.597656 Z M 3.359375 2.8125 "/>
</g>
</svg>
